<svg id="Layer_1" data-name="Layer 1" xmlns="http://www.w3.org/2000/svg" viewBox="0 0 450.07 450"><defs><style>.cls-1{fill:#00a6fa;}.cls-2,.cls-4{fill:none;stroke-miterlimit:10;stroke-width:3px;}.cls-2{stroke:#82888c;}.cls-3{fill:#060c04;}.cls-4{stroke:#060c04;}.cls-5{fill:#b30000;}</style></defs><rect class="cls-1" x="-0.46" width="450" height="450"/><path class="cls-2" d="M194.64,78.19a8.56,8.56,0,0,1,0,5.4c-.84,1.5.43,1.76-.86,3.68-.11.16-4.49.29-4.15,1.16.6,1.55,5.16.45,6.16.48,11.45.27,21.17.43,32.14-.19,11.52-.64,24.22-1.38,35.75-1.72l-1.34,2.51c1.51-1.39,1.39-2.28,1.34-2.51-.18-.87-3,0-4.7-.82s-.63-2.1-1-2.77.12-3.25.5-4"/><path class="cls-2" d="M189.58,162.46a68.71,68.71,0,0,0,3.54-11.71c1.3-6.25,1.34-10.85,1.36-18.8,0-8.32,1.84-16.08,1.21-24.15-.42-5.51-2-13.09-2.31-16.34"/><path class="cls-2" d="M261.11,161.11a68.58,68.58,0,0,1-3.55-11.71c-1.29-6.25-1.33-10.85-1.36-18.8,0-8.33-1.83-16.08-1.21-24.16.43-5.5,2-13.09,2.32-16.33"/><path class="cls-3" d="M184.78,161.53c-3.41,9.58-8.45,23.86-14.53,41.41-6.18,17.85-7.52,22-8.35,24.7-7.16,22.74-11.1,40.37-12.35,46.13-1,4.39-4.12,19.23-6.91,39.23-4,28.7-2.9,22-4.35,48.32-.92,16.61-4.87,29.07,2.9,39.23a26.14,26.14,0,0,0,4.72,4.72c12.3,9.81,28.7,7.63,47.59,7.87s30.51.53,67.56.05a109.69,109.69,0,0,0,29.43-3.56c6.29-1.72,11.95-3.26,16.34-7.27,10-9.1,8.14-26.05,6.18-42.13-5.59-45.74-8.38-68.61-9.08-71.93-7.94-37.36-17.23-65.9-24-86.45-5.95-18.11-11.38-33-15.25-43.23a183,183,0,0,1-31.24,4.72,181.82,181.82,0,0,1-28-.36Z"/><path class="cls-4" d="M192,78.9a8.17,8.17,0,0,1,0,5.47c-.91,1.51-3.5.77-4.9,2.72-.12.16-.91,1.3-.55,2.18.66,1.57,4.7,2.16,5.77,2.19,12.44.27,23.73.43,35.65-.19,12.51-.65,25.06-.56,37.59-.91,1.64-1.41,1.51-2.31,1.45-2.54-.2-.88-1.38-1.38-3.26-2.18s-2.53-.78-2.91-1.46.14-3.29.54-4.08"/><path class="cls-5" d="M164.94,39.32q2.64,8.35,5.27,16.71a5.15,5.15,0,0,1,8,5.09L182.82,81h86l3.84-20.09a5.53,5.53,0,0,1,1.63-3.64A6.07,6.07,0,0,1,279.73,56l6.36-16.71c-.95-.3-2.62-.8-4.73-1.27a54.18,54.18,0,0,0-12.71-1.27c-8.62.1,13.07-1.07-45.77-1.09-28,0-37.81.25-49.77,1.09-3,.21-5.42.41-7.08.54Z"/><path class="cls-4" d="M186.46,162.46A68.71,68.71,0,0,0,190,150.75c1.3-6.25,1.34-10.85,1.36-18.8,0-8.32,1.84-16.08,1.21-24.15-.43-5.51-2-13.09-2.31-16.34"/><path class="cls-4" d="M264.23,161.11a68.71,68.71,0,0,1-3.54-11.71c-1.3-6.25-1.34-10.85-1.37-18.8,0-8.33-1.83-16.08-1.2-24.16.42-5.5,2-13.09,2.31-16.33"/></svg>